<svg width="32" height="32" viewBox="0 0 32 32" fill="none" xmlns="http://www.w3.org/2000/svg">
<g opacity="0.6">
<path fill-rule="evenodd" clip-rule="evenodd" d="M24.7202 5.78683L26.6669 5.98683C28.9715 6.24731 30.7021 8.21445 30.6669 10.5335V21.4668C30.7021 23.7859 28.9715 25.753 26.6669 26.0135L24.8002 26.2135C18.9756 26.8135 13.1048 26.8135 7.2802 26.2135L5.33354 26.0135C3.02889 25.753 1.29828 23.7859 1.33354 21.4668V10.5335C1.29828 8.21445 3.02889 6.24731 5.33354 5.98683L7.2002 5.78683C13.0248 5.18686 18.8956 5.18686 24.7202 5.78683ZM14.8136 20.2934L20.0002 16.8267H20.0802C20.3597 16.6446 20.5283 16.3336 20.5283 16C20.5283 15.6665 20.3597 15.3555 20.0802 15.1734L14.8936 11.7067C14.5873 11.4997 14.1919 11.4785 13.8653 11.6516C13.5387 11.8246 13.3342 12.1637 13.3336 12.5334V19.4667C13.3508 19.8108 13.5439 20.1218 13.8447 20.2898C14.1455 20.4578 14.5116 20.4592 14.8136 20.2934Z" fill="#FF0000"/>
</g>
</svg>
