<svg width="24" height="24" viewBox="0 0 24 24" fill="none" xmlns="http://www.w3.org/2000/svg">
<g id="brush">
<path id="Icon color" fill-rule="evenodd" clip-rule="evenodd" d="M13.37 13.43L20.87 5.28003C20.964 5.18177 21.0139 5.04948 21.0082 4.91365C21.0026 4.77781 20.9418 4.65013 20.84 4.56003L19.4 3.12003C19.2069 2.9359 18.9032 2.9359 18.71 3.12003L10.56 10.62C10.4622 10.7143 10.407 10.8442 10.407 10.98C10.407 11.1158 10.4622 11.2458 10.56 11.34L12.65 13.43C12.7442 13.5278 12.8742 13.583 13.01 13.583C13.1458 13.583 13.2758 13.5278 13.37 13.43ZM9.08001 12.32L11.69 14.94C11.8538 15.0903 11.9629 15.2909 12 15.51V16C12.0035 17.0647 11.5824 18.0868 10.83 18.84C9.2534 20.3623 7.10663 21.1469 4.92001 21C4.27654 21.003 3.65034 20.792 3.14001 20.4C2.97274 20.231 2.94766 19.9676 3.08001 19.77C3.84089 18.6381 3.90688 17.5547 3.97011 16.5167C4.0415 15.3447 4.10936 14.2307 5.17001 13.17C5.92079 12.4201 6.93882 11.9992 8.00001 12C8.16318 11.9898 8.32683 11.9898 8.49001 12C8.71544 12.042 8.92189 12.154 9.08001 12.32Z" fill="#9193A9"/>
</g>
</svg>
