<svg baseProfile="basic" xmlns="http://www.w3.org/2000/svg" viewBox="0 0 1000 1000"><path fill="#B02D59" d="M636.41 622.91l79.04 6.3-12.55-33.84z"/><path fill="#B02D59" d="M700.96 590.14l-76.76 31.8 12.21.97 66.49-27.54z"/><path fill="#B12D59" d="M699.02 584.91l-87.03 36.05 12.21.98 76.76-31.8z"/><path fill="#B22E59" d="M697.08 579.68l-97.31 40.31 12.22.97 87.03-36.05z"/><path fill="#B32E59" d="M695.14 574.45l-107.58 44.57 12.21.97 97.31-40.31z"/><path fill="#B42F59" d="M693.2 569.22l-117.86 48.82 12.22.98 107.58-44.57z"/><path fill="#B52F59" d="M691.26 563.99l-128.13 53.08 12.21.97 117.86-48.82z"/><path fill="#B63059" d="M689.32 558.77l-130.08 53.88 1.57 4.24 2.32.18 128.13-53.08z"/><path fill="#B73059" d="M687.38 553.54L557.3 607.42l1.94 5.23 130.08-53.88z"/><path fill="#B83159" d="M685.44 548.31l-130.08 53.88 1.94 5.23 130.08-53.88z"/><path fill="#B93159" d="M683.5 543.08l-130.08 53.88 1.94 5.23 130.08-53.88z"/><path fill="#BA3259" d="M681.57 537.85l-130.09 53.88 1.94 5.23 130.08-53.88z"/><path fill="#BB3259" d="M679.63 532.62l-130.09 53.89 1.94 5.22 130.09-53.88z"/><path fill="#BC3359" d="M677.69 527.39L547.6 581.28l1.94 5.23 130.09-53.89z"/><path fill="#BD3359" d="M675.75 522.16l-130.09 53.89 1.94 5.23 130.09-53.89z"/><path fill="#BE3459" d="M673.81 516.93l-130.09 53.89 1.94 5.23 130.09-53.89z"/><path fill="#BF3459" d="M671.87 511.7l-130.09 53.89 1.94 5.23 130.09-53.89z"/><path fill="#C03559" d="M669.93 506.47l-130.09 53.89 1.94 5.23 130.09-53.89z"/><path fill="#C13559" d="M667.99 501.25L537.9 555.13l1.94 5.23 130.09-53.89z"/><path fill="#C23659" d="M666.05 496.02L535.96 549.9l1.94 5.23 130.09-53.88z"/><path fill="#C33659" d="M664.11 490.79l-130.09 53.88 1.94 5.23 130.09-53.88z"/><path fill="#C43759" d="M662.17 485.56l-130.09 53.88 1.94 5.23 130.09-53.88z"/><path fill="#C53759" d="M660.23 480.33l-130.09 53.88 1.94 5.23 130.09-53.88z"/><path fill="#C63859" d="M658.29 475.1L528.2 528.99l1.94 5.22 130.09-53.88z"/><path fill="#C73859" d="M656.35 469.87l-130.09 53.89 1.94 5.23 130.09-53.89z"/><path fill="#C83959" d="M654.41 464.64l-130.09 53.89 1.94 5.23 130.09-53.89z"/><path fill="#C93959" d="M652.47 459.41L522.38 513.3l1.94 5.23 130.09-53.89z"/><path fill="#CA3A59" d="M650.53 454.18l-130.09 53.89 1.94 5.23 130.09-53.89z"/><path fill="#CB3A59" d="M648.59 448.95l-130.08 53.89 1.93 5.23 130.09-53.89z"/><path fill="#CC3B59" d="M646.65 443.72l-130.08 53.89 1.94 5.23 130.08-53.89z"/><path fill="#CD3B59" d="M644.71 438.5l-130.08 53.88 1.94 5.23 130.08-53.89z"/><path fill="#CE3C59" d="M642.77 433.27l-130.08 53.88 1.94 5.23 130.08-53.88z"/><path fill="#CF3C59" d="M640.84 428.04l-130.09 53.88 1.94 5.23 130.08-53.88z"/><path fill="#D03D59" d="M638.9 422.81l-130.09 53.88 1.94 5.23 130.09-53.88z"/><path fill="#D13D59" d="M636.96 417.58l-130.09 53.88 1.94 5.23 130.09-53.88z"/><path fill="#D23E59" d="M635.02 412.35l-130.09 53.89 1.94 5.22 130.09-53.88z"/><path fill="#D33E59" d="M633.08 407.12l-130.09 53.89 1.94 5.23 130.09-53.89z"/><path fill="#D43F59" d="M631.14 401.89l-130.09 53.89 1.94 5.23 130.09-53.89z"/><path fill="#D53F59" d="M629.2 396.66l-130.09 53.89 1.94 5.23 130.09-53.89z"/><path fill="#D64059" d="M627.26 391.43l-130.09 53.89 1.94 5.23 130.09-53.89z"/><path fill="#D84059" d="M625.32 386.2l-130.09 53.89 1.94 5.23 130.09-53.89z"/><path fill="#D94159" d="M623.38 380.98l-130.09 53.88 1.94 5.23 130.09-53.89z"/><path fill="#DA4159" d="M621.44 375.75l-130.09 53.88 1.94 5.23 130.09-53.88z"/><path fill="#DB4259" d="M619.5 370.52L489.41 424.4l1.94 5.23 130.09-53.88z"/><path fill="#DC4259" d="M617.56 365.29l-130.09 53.88 1.94 5.23 130.09-53.88z"/><path fill="#DD4359" d="M615.62 360.06l-130.09 53.88 1.94 5.23 130.09-53.88z"/><path fill="#DE4359" d="M613.68 354.83l-130.09 53.89 1.94 5.22 130.09-53.88z"/><path fill="#DF4459" d="M611.74 349.6l-130.09 53.89 1.94 5.23 130.09-53.89z"/><path fill="#E04459" d="M609.8 344.37l-130.09 53.89 1.94 5.23 130.09-53.89z"/><path fill="#E14559" d="M607.86 339.14l-130.09 53.89 1.94 5.23 130.09-53.89z"/><path fill="#E24559" d="M605.92 333.91L475.84 387.8l1.93 5.23 130.09-53.89z"/><path fill="#E34659" d="M603.98 328.68L473.9 382.57l1.94 5.23 130.08-53.89z"/><path fill="#E44659" d="M602.04 323.45l-130.08 53.89 1.94 5.23 130.08-53.89z"/><path fill="#E54759" d="M600.11 318.23l-130.09 53.88 1.94 5.23 130.08-53.89z"/><path fill="#E64759" d="M598.17 313l-130.09 53.88 1.94 5.23 130.09-53.88z"/><path fill="#E74859" d="M596.23 307.77l-130.09 53.88 1.94 5.23L598.17 313z"/><path fill="#E84859" d="M594.29 302.54L464.2 356.42l1.94 5.23 130.09-53.88z"/><path fill="#E94959" d="M592.35 297.31L462.26 351.2l1.94 5.22 130.09-53.88z"/><path fill="#EA4959" d="M590.41 292.08l-130.09 53.89 1.94 5.23 130.09-53.89z"/><path fill="#EB4A59" d="M588.47 286.85l-130.09 53.89 1.94 5.23 130.09-53.89z"/><path fill="#EC4A59" d="M586.53 281.62l-130.09 53.89 1.94 5.23 130.09-53.89z"/><path fill="#ED4B59" d="M584.59 276.39L454.5 330.28l1.94 5.23 130.09-53.89z"/><path fill="#EE4B59" d="M582.65 271.16l-130.09 53.89 1.94 5.23 130.09-53.89z"/><path fill="#EF4C59" d="M580.71 265.93l-130.09 53.89 1.94 5.23 130.09-53.89z"/><path fill="#F04C59" d="M579.91 263.78c-.38-1.03-.78-2.04-1.2-3.05l-130.03 53.86 1.94 5.23 130.09-53.89-.8-2.15z"/><path fill="#F14D59" d="M576.38 255.66l-129.64 53.7 1.94 5.23 130.03-53.86a80.36 80.36 0 0 0-2.33-5.07z"/><path fill="#F24D59" d="M573.71 250.74l-128.91 53.4 1.94 5.23 129.64-53.7a75.09 75.09 0 0 0-2.67-4.93z"/><path fill="#F34E59" d="M570.69 245.96L442.86 298.9l1.94 5.23 128.91-53.4c-.96-1.63-1.96-3.22-3.02-4.77z"/><path fill="#F44E59" d="M567.29 241.33l-126.37 52.34 1.94 5.23 127.82-52.95a85.568 85.568 0 0 0-3.39-4.62z"/><path fill="#F54F59" d="M563.5 236.87l-124.52 51.58 1.94 5.23 126.37-52.34a73.87 73.87 0 0 0-3.79-4.47z"/><path fill="#F64F59" d="M559.29 232.58l-122.25 50.64 1.94 5.23 124.52-51.58a74.112 74.112 0 0 0-4.21-4.29z"/><path fill="#F75059" d="M554.62 228.48L435.1 277.99l1.94 5.23 122.25-50.64c-1.5-1.43-3.06-2.79-4.67-4.1z"/><path fill="#F85059" d="M549.44 224.6l-116.27 48.16 1.94 5.23 119.52-49.51a84.34 84.34 0 0 0-5.19-3.88z"/><path fill="#F95159" d="M543.65 220.96l-112.43 46.57 1.94 5.23 116.27-48.16c-1.87-1.3-3.8-2.51-5.78-3.64z"/><path fill="#FA5159" d="M537.18 217.61L429.29 262.3l1.94 5.23 112.43-46.57a82.655 82.655 0 0 0-6.48-3.35z"/><path fill="#FB5259" d="M529.82 214.63l-102.47 42.44 1.94 5.23 107.89-44.69c-2.4-1.11-4.86-2.11-7.36-2.98z"/><path fill="#FC5259" d="M521.26 212.14l-95.85 39.7 1.94 5.23 102.47-42.44c-2.8-.98-5.65-1.82-8.56-2.49z"/><path fill="#FD5359" d="M510.83 210.42l-87.36 36.19 1.94 5.23 95.85-39.7c-3.41-.79-6.89-1.36-10.43-1.72z"/><path fill="#FE5359" d="M502.61 210h-5.31l-75.76 31.38 1.94 5.23 87.36-36.19c-2.72-.27-5.46-.42-8.23-.42zM409.89 210l11.64 31.38L497.29 210z"/><g><path fill="#FE5359" d="M775.18 649.56l116.98-315.39h-92.71c-34.48 0-65.31 21.45-77.3 53.78l-48.09 129.66-9.87 26.6c-22.42 60.44-107.89 60.45-130.33.03l39.06 105.32c15.68 42.29 56.02 70.35 101.12 70.35 45.11 0 85.45-28.06 101.14-70.35z"/></g><g opacity=".3"><path fill="#4A0028" d="M641.81 575.14l-33.2 13.75c11.9-1.59 23.43-6.17 33.2-13.75z"/><path fill="#4D0129" d="M608.61 588.9l33.2-13.75a66.99 66.99 0 0 0 5.65-4.92l-46.55 19.28c2.57-.07 5.15-.27 7.7-.61z"/><path fill="#4F0329" d="M600.91 589.51l46.55-19.28c1.38-1.34 2.71-2.75 3.98-4.23l-56.53 23.42c2 .11 4 .14 6 .09z"/><path fill="#52042A" d="M594.91 589.42L651.44 566c1.07-1.23 2.09-2.52 3.08-3.85l-64.7 26.8c1.7.21 3.39.37 5.09.47z"/><path fill="#55052B" d="M589.83 588.95l64.7-26.8c.87-1.16 1.7-2.37 2.5-3.61l-71.67 29.69c1.47.28 2.97.52 4.47.72z"/><path fill="#58062C" d="M585.35 588.22l71.67-29.69c.73-1.12 1.43-2.27 2.11-3.45l-77.83 32.24c1.34.35 2.69.64 4.05.9z"/><path fill="#5A072C" d="M581.3 587.33l77.83-32.24c.61-1.08 1.2-2.18 1.77-3.31l-83.28 34.5c1.22.38 2.44.73 3.68 1.05z"/><path fill="#5D092D" d="M577.62 586.27l83.28-34.5a86.11 86.11 0 0 0 1.51-3.2l-88.2 36.54c1.12.42 2.26.8 3.41 1.16z"/><path fill="#5F0A2E" d="M574.2 585.11l88.2-36.54c.45-1.02.88-2.06 1.3-3.11l-92.65 38.38c1.04.45 2.09.88 3.15 1.27z"/><path fill="#620B2E" d="M571.05 583.84l92.65-38.38c.16-.42.34-.83.49-1.25l.67-1.8-96.77 40.09c.97.47 1.96.92 2.96 1.34z"/><path fill="#640C2F" d="M568.09 582.49l96.77-40.09 1.13-3.04-100.68 41.71c.91.5 1.84.97 2.78 1.42z"/><path fill="#670D30" d="M565.31 581.07l100.68-41.71 1.13-3.04-104.43 43.26c.86.51 1.73 1.01 2.62 1.49z"/><path fill="#690E31" d="M562.69 579.57l104.43-43.26 1.13-3.04-108.01 44.74c.8.54 1.62 1.07 2.45 1.56z"/><path fill="#6C1031" d="M560.23 578.02l108.01-44.74 1.13-3.04-111.46 46.16c.77.56 1.54 1.1 2.32 1.62z"/><path fill="#6E1132" d="M557.91 576.4l111.46-46.17 1.13-3.04-114.79 47.55c.73.57 1.46 1.12 2.2 1.66z"/><path fill="#711233" d="M555.72 574.73l114.79-47.55 1.13-3.04-118 48.88c.68.59 1.37 1.16 2.08 1.71z"/><path fill="#731333" d="M553.64 573.02l118-48.88 1.13-3.04-121.1 50.16c.64.6 1.3 1.19 1.97 1.76z"/><path fill="#751434" d="M551.67 571.26l121.1-50.16 1.13-3.04-124.09 51.4c.61.61 1.23 1.21 1.86 1.8z"/><path fill="#781534" d="M548.04 567.61c.58.63 1.17 1.24 1.77 1.85l124.09-51.4.17-.45-.71-1.91-125.32 51.91z"/><path fill="#7A1635" d="M672.52 513.47l-126.16 52.26c.55.64 1.11 1.27 1.67 1.88l125.31-51.91-.82-2.23z"/><path fill="#7C1736" d="M671.69 511.23L544.78 563.8c.52.65 1.05 1.29 1.58 1.92l126.16-52.26-.83-2.23z"/><path fill="#7E1836" d="M670.87 509l-127.58 52.85c.49.67.99 1.32 1.5 1.96l126.91-52.57-.83-2.24z"/><path fill="#811937" d="M670.04 506.77l-128.16 53.09c.46.68.93 1.34 1.41 1.99L670.87 509l-.83-2.23z"/><path fill="#831A37" d="M669.21 504.53l-128.66 53.29c.43.69.87 1.36 1.32 2.03l128.16-53.09-.82-2.23z"/><path fill="#851B38" d="M668.38 502.3l-129.07 53.47c.41.7.82 1.39 1.25 2.06l128.66-53.29-.84-2.24z"/><path fill="#871C39" d="M667.55 500.07l-129.42 53.61c.38.71.77 1.4 1.17 2.09l129.07-53.47-.82-2.23z"/><path fill="#891D39" d="M666.72 497.83l-129.69 53.72c.36.72.73 1.42 1.1 2.12l129.42-53.61-.83-2.23z"/><path fill="#8B1E3A" d="M665.9 495.6L536 549.4c.33.73.68 1.44 1.03 2.15l129.69-53.72-.82-2.23z"/><path fill="#8D1F3A" d="M665.07 493.36l-130.03 53.86c.31.74.63 1.46.96 2.18l129.9-53.81-.83-2.23z"/><path fill="#8F203B" d="M664.24 491.13l-130.08 53.88c.29.74.57 1.49.88 2.21l130.03-53.86-.83-2.23z"/><path fill="#91213B" d="M663.41 488.9l-130.1 53.89.54 1.45c.01.03.01.04.03.07.09.24.19.47.28.71l130.08-53.88-.83-2.24z"/><path fill="#93223C" d="M662.58 486.66l-130.09 53.89.82 2.24 130.1-53.89z"/><path fill="#95233D" d="M661.75 484.43l-130.09 53.89.83 2.23 130.09-53.89z"/><path fill="#97243D" d="M660.93 482.2l-130.1 53.89.83 2.23 130.09-53.89z"/><path fill="#99253E" d="M660.1 479.96L530 533.85l.83 2.24 130.1-53.89z"/><path fill="#9B253E" d="M659.27 477.73l-130.1 53.89.83 2.23 130.1-53.89z"/><path fill="#9D263F" d="M658.44 475.5l-130.1 53.89.83 2.23 130.1-53.89z"/><path fill="#9F273F" d="M657.61 473.26l-130.09 53.89.82 2.24 130.1-53.89z"/><path fill="#A12840" d="M656.78 471.03l-130.09 53.89.83 2.23 130.09-53.89z"/><path fill="#A32940" d="M655.96 468.8l-130.1 53.89.83 2.23 130.09-53.89z"/><path fill="#A42A41" d="M655.13 466.56l-130.1 53.89.83 2.24 130.1-53.89z"/><path fill="#A62A41" d="M654.3 464.33l-130.1 53.89.83 2.23 130.1-53.89z"/><path fill="#A82B42" d="M653.47 462.1l-130.1 53.89.83 2.23 130.1-53.89z"/><path fill="#AA2C42" d="M652.64 459.86l-130.09 53.89.82 2.24 130.1-53.89z"/><path fill="#AB2D42" d="M651.81 457.63l-130.09 53.89.83 2.23 130.09-53.89z"/><path fill="#AD2E43" d="M650.99 455.4l-130.1 53.89.83 2.23 130.09-53.89z"/><path fill="#AF2E43" d="M650.16 453.16l-130.1 53.89.83 2.24 130.1-53.89z"/><path fill="#B02F44" d="M649.33 450.93l-130.1 53.89.83 2.23 130.1-53.89z"/><path fill="#B23044" d="M648.5 448.7l-130.1 53.88.83 2.24 130.1-53.89z"/><path fill="#B33145" d="M647.67 446.46l-130.09 53.89.82 2.23 130.1-53.88z"/><path fill="#B53145" d="M646.84 444.23l-130.09 53.89.83 2.23 130.09-53.89z"/><path fill="#B73246" d="M646.02 442l-130.1 53.88.83 2.24 130.09-53.89z"/><path fill="#B83346" d="M645.19 439.76l-130.1 53.89.83 2.23L646.02 442z"/><path fill="#BA3346" d="M644.36 437.53l-130.1 53.89.83 2.23 130.1-53.89z"/><path fill="#BB3447" d="M643.53 435.29l-130.1 53.89.83 2.24 130.1-53.89z"/><path fill="#BD3547" d="M642.7 433.06l-130.09 53.89.82 2.23 130.1-53.89z"/><path fill="#BE3648" d="M641.87 430.83l-130.09 53.89.83 2.23 130.09-53.89z"/><path fill="#BF3648" d="M641.05 428.59l-130.1 53.89.83 2.24 130.09-53.89z"/><path fill="#C13748" d="M640.22 426.36l-130.1 53.89.83 2.23 130.1-53.89z"/><path fill="#C23749" d="M639.39 424.13l-130.1 53.89.83 2.23 130.1-53.89z"/><path fill="#C43849" d="M638.56 421.89l-130.1 53.89.83 2.24 130.1-53.89z"/><path fill="#C53949" d="M637.73 419.66l-130.09 53.89.82 2.23 130.1-53.89z"/><path fill="#C6394A" d="M636.9 417.43l-130.09 53.89.83 2.23 130.09-53.89z"/><path fill="#C83A4A" d="M636.08 415.19l-130.1 53.89.83 2.24 130.09-53.89z"/><path fill="#C93B4B" d="M635.25 412.96l-130.1 53.89.83 2.23 130.1-53.89z"/><path fill="#CA3B4B" d="M634.42 410.73l-130.1 53.89.83 2.23 130.1-53.89z"/><path fill="#CB3C4B" d="M633.59 408.49l-130.1 53.89.83 2.24 130.1-53.89z"/><path fill="#CD3C4C" d="M632.76 406.26l-130.09 53.89.82 2.23 130.1-53.89z"/><path fill="#CE3D4C" d="M631.93 404.03l-130.09 53.89.83 2.23 130.09-53.89z"/><path fill="#CF3D4C" d="M631.11 401.79l-130.1 53.89.83 2.24 130.09-53.89z"/><path fill="#D03E4D" d="M630.28 399.56l-130.1 53.89.83 2.23 130.1-53.89z"/><path fill="#D13E4D" d="M629.45 397.33l-130.1 53.88.83 2.24 130.1-53.89z"/><path fill="#D23F4D" d="M628.62 395.09l-130.1 53.89.83 2.23 130.1-53.88z"/><path fill="#D43F4D" d="M627.79 392.86L497.7 446.75l.82 2.23 130.1-53.89z"/><path fill="#D5404E" d="M626.96 390.62l-130.09 53.89.83 2.24 130.09-53.89z"/><path fill="#D6404E" d="M626.14 388.39l-130.1 53.89.83 2.23 130.09-53.89z"/><path fill="#D7414E" d="M625.31 386.16l-130.1 53.89.83 2.23 130.1-53.89z"/><path fill="#D8414F" d="M624.48 383.92l-130.1 53.89.83 2.24 130.1-53.89z"/><path fill="#D9424F" d="M623.65 381.69l-130.1 53.89.83 2.23 130.1-53.89z"/><path fill="#DA424F" d="M622.82 379.46l-130.09 53.89.82 2.23 130.1-53.89z"/><path fill="#DB434F" d="M621.99 377.22L491.9 431.11l.83 2.24 130.09-53.89z"/><path fill="#DC4350" d="M621.17 374.99l-130.1 53.89.83 2.23 130.09-53.89z"/><path fill="#DD4450" d="M620.34 372.76l-130.1 53.89.83 2.23 130.1-53.89z"/><path fill="#DE4450" d="M619.51 370.52l-130.1 53.89.83 2.24 130.1-53.89z"/><path fill="#DF4550" d="M618.68 368.29l-130.1 53.89.83 2.23 130.1-53.89z"/><path fill="#E04551" d="M617.85 366.06l-130.09 53.89.82 2.23 130.1-53.89zM617.02 363.82l-130.09 53.89.83 2.24 130.09-53.89z"/><path fill="#E14651" d="M616.19 361.59L486.1 415.48l.83 2.23 130.09-53.89z"/><path fill="#E24651" d="M615.37 359.36l-130.1 53.89.83 2.23 130.09-53.89z"/><path fill="#E34752" d="M614.54 357.12l-130.1 53.89.83 2.24 130.1-53.89z"/><path fill="#E44752" d="M613.71 354.89l-130.1 53.89.83 2.23 130.1-53.89z"/><path fill="#E54752" d="M612.88 352.66l-130.09 53.89.82 2.23 130.1-53.89z"/><path fill="#E54852" d="M612.05 350.42l-130.09 53.89.83 2.24 130.09-53.89z"/><path fill="#E64853" d="M611.22 348.19l-130.09 53.89.83 2.23 130.09-53.89z"/><path fill="#E74853" d="M610.4 345.96l-130.1 53.88.83 2.24 130.09-53.89z"/><path fill="#E84953" d="M609.57 343.72l-130.1 53.89.83 2.23 130.1-53.88zM608.74 341.49l-130.1 53.89.83 2.23 130.1-53.89z"/><path fill="#E94953" d="M607.91 339.26l-130.09 53.88.82 2.24 130.1-53.89z"/><path fill="#EA4A53" d="M607.08 337.02l-130.09 53.89.83 2.23 130.09-53.88z"/><path fill="#EA4A54" d="M606.25 334.79l-130.09 53.89.83 2.23 130.09-53.89z"/><path fill="#EB4A54" d="M605.43 332.55l-130.1 53.89.83 2.24 130.09-53.89z"/><path fill="#EC4B54" d="M604.6 330.32l-130.1 53.89.83 2.23 130.1-53.89zM603.77 328.09l-130.1 53.89.83 2.23 130.1-53.89z"/><path fill="#ED4B54" d="M602.94 325.85l-130.1 53.89.83 2.24 130.1-53.89z"/><path fill="#EE4B55" d="M602.11 323.62l-130.09 53.89.82 2.23 130.1-53.89z"/><path fill="#EE4C55" d="M601.28 321.39l-130.09 53.89.83 2.23 130.09-53.89z"/><path fill="#EF4C55" d="M600.46 319.15l-130.1 53.89.83 2.24 130.09-53.89z"/><path fill="#EF4C55" d="M599.63 316.92l-130.1 53.89.83 2.23 130.1-53.89z"/><path fill="#F04D55" d="M598.8 314.69l-130.1 53.89.83 2.23 130.1-53.89z"/><path fill="#F04D55" d="M597.97 312.45l-130.1 53.89.83 2.24 130.1-53.89z"/><path fill="#F14D55" d="M597.14 310.22l-130.09 53.89.82 2.23 130.1-53.89z"/><path fill="#F24D56" d="M596.31 307.99l-130.09 53.89.83 2.23 130.09-53.89z"/><path fill="#F24D56" d="M595.49 305.75l-130.1 53.89.83 2.24 130.09-53.89z"/><path fill="#F34E56" d="M594.66 303.52l-130.1 53.89.83 2.23 130.1-53.89z"/><path fill="#F34E56" d="M593.83 301.29l-130.1 53.89.83 2.23 130.1-53.89zM593 299.05l-130.1 53.89.83 2.24 130.1-53.89z"/><path fill="#F44E56" d="M592.17 296.82l-130.09 53.89.82 2.23L593 299.05z"/><path fill="#F44F56" d="M591.34 294.59l-130.09 53.89.83 2.23 130.09-53.89z"/><path fill="#F54F56" d="M590.52 292.35l-130.1 53.89.83 2.24 130.09-53.89z"/><path fill="#F54F57" d="M589.69 290.12l-130.1 53.89.83 2.23 130.1-53.89z"/><path fill="#F64F57" d="M588.86 287.89l-130.1 53.88.83 2.24 130.1-53.89zM588.03 285.65l-130.1 53.89.83 2.23 130.1-53.88z"/><path fill="#F64F57" d="M587.2 283.42l-130.09 53.89.82 2.23 130.1-53.89z"/><path fill="#F75057" d="M586.37 281.19l-130.09 53.88.83 2.24 130.09-53.89zM585.55 278.95l-130.1 53.89.83 2.23 130.09-53.88z"/><path fill="#F75057" d="M584.72 276.72l-130.1 53.89.83 2.23 130.1-53.89z"/><path fill="#F85057" d="M583.89 274.48l-130.1 53.89.83 2.24 130.1-53.89zM583.06 272.25l-130.1 53.89.83 2.23 130.1-53.89z"/><path fill="#F85057" d="M582.23 270.02l-130.09 53.89.82 2.23 130.1-53.89z"/><path fill="#F95158" d="M581.4 267.78l-130.09 53.89.83 2.24 130.09-53.89z"/><path fill="#F95158" d="M580.58 265.55l-130.1 53.89.83 2.23 130.09-53.89zM579.92 263.77l-.18-.45-130.09 53.89.83 2.23 130.1-53.89-.66-1.78z"/><path fill="#F95158" d="M578.87 261.11l-130.04 53.87.83 2.23 130.09-53.89c-.29-.74-.58-1.48-.88-2.21z"/><path fill="#FA5158" d="M577.92 258.92l-129.93 53.82.83 2.23 130.04-53.87c-.3-.73-.62-1.46-.94-2.18z"/><path fill="#FA5158" d="M576.92 256.76l-129.76 53.75.83 2.23 129.93-53.82c-.32-.73-.65-1.45-1-2.16zM575.87 254.62l-129.53 53.65.83 2.23 129.76-53.75c-.35-.71-.7-1.43-1.06-2.13zM574.74 252.51l-129.23 53.53.83 2.23 129.53-53.65c-.37-.71-.75-1.41-1.13-2.11z"/><path fill="#FB5158" d="M573.54 250.43l-128.86 53.38.83 2.23 129.23-53.53c-.39-.7-.79-1.39-1.2-2.08z"/><path fill="#FB5258" d="M572.28 248.37l-128.43 53.2.83 2.23 128.86-53.38c-.41-.68-.83-1.37-1.26-2.05zM570.96 246.34l-127.94 52.99.83 2.23 128.43-53.2c-.43-.67-.87-1.35-1.32-2.02z"/><path fill="#FB5258" d="M569.57 244.34L442.2 297.11l.83 2.23 127.94-52.99c-.46-.68-.92-1.35-1.4-2.01zM568.1 242.37l-126.74 52.5.83 2.23 127.38-52.76c-.48-.66-.97-1.32-1.47-1.97z"/><path fill="#FC5258" d="M566.57 240.43l-126.03 52.2.83 2.23 126.74-52.5c-.51-.64-1.02-1.29-1.54-1.93zM564.96 238.52L439.71 290.4l.83 2.23 126.03-52.2c-.53-.64-1.06-1.28-1.61-1.91z"/><path fill="#FC5258" d="M563.29 236.64l-124.41 51.53.83 2.23 125.25-51.88c-.55-.63-1.1-1.26-1.67-1.88z"/><path fill="#FC5258" d="M561.54 234.79l-123.49 51.15.83 2.23 124.41-51.53c-.57-.63-1.15-1.25-1.75-1.85z"/><path fill="#FC5259" d="M559.7 232.97L437.23 283.7l.83 2.23 123.49-51.15c-.61-.61-1.23-1.21-1.85-1.81z"/><path fill="#FC5259" d="M557.78 231.19L436.4 281.47l.83 2.23 122.47-50.73c-.63-.6-1.27-1.19-1.92-1.78z"/><path fill="#FD5259" d="M555.77 229.45l-120.2 49.79.83 2.23 121.38-50.28c-.66-.59-1.33-1.17-2.01-1.74zM553.68 227.74L434.74 277l.83 2.23 120.2-49.79c-.69-.57-1.39-1.14-2.09-1.7zM551.49 226.07l-117.58 48.7.83 2.23 118.94-49.27c-.72-.56-1.45-1.12-2.19-1.66z"/><path fill="#FD5359" d="M549.2 224.44l-116.12 48.1.83 2.23 117.58-48.7c-.76-.56-1.52-1.1-2.29-1.63zM546.8 222.85L432.26 270.3l.83 2.23 116.12-48.1c-.8-.53-1.6-1.06-2.41-1.58z"/><path fill="#FD5359" d="M544.29 221.32l-112.87 46.75.83 2.23 114.55-47.45c-.82-.52-1.66-1.04-2.51-1.53zM541.65 219.83l-111.06 46 .83 2.23 112.87-46.75c-.87-.5-1.75-1-2.64-1.48z"/><path fill="#FD5359" d="M538.88 218.41l-109.11 45.2.83 2.23 111.06-46c-.92-.5-1.85-.97-2.78-1.43zM535.95 217.05l-107.01 44.32.83 2.23 109.11-45.2c-.97-.47-1.95-.92-2.93-1.35zM532.85 215.75l-104.73 43.38.83 2.23 107.01-44.32c-1.04-.45-2.07-.88-3.11-1.29z"/><path fill="#FE5359" d="M529.56 214.54L427.29 256.9l.83 2.23 104.73-43.38c-1.09-.43-2.19-.83-3.29-1.21zM526.05 213.41l-99.59 41.25.83 2.23 102.27-42.36c-1.16-.39-2.33-.77-3.51-1.12zM522.3 212.39l-96.67 40.04.83 2.23 99.59-41.25c-1.24-.36-2.49-.71-3.75-1.02z"/><path fill="#FE5359" d="M518.24 211.5l-93.44 38.7.83 2.23 96.67-40.04a77 77 0 0 0-4.06-.89z"/><path fill="#FE5359" d="M513.77 210.77l-89.8 37.2.83 2.23 93.44-38.71c-1.48-.28-2.97-.51-4.47-.72zM508.84 210.24l-85.7 35.5.83 2.23 89.8-37.2c-1.63-.22-3.27-.41-4.93-.53zM503.17 210.01l-80.85 33.49.83 2.23 85.7-35.5c-1.89-.13-3.78-.21-5.68-.22zM502.6 210h-5.63l-75.49 31.27.83 2.23 80.85-33.49c-.18 0-.37-.01-.56-.01z"/><path fill="#FE5359" d="M490.75 210l-70.09 29.04.83 2.23L496.97 210z"/><path fill="#FE5359" d="M484.53 210l-64.7 26.8.83 2.24L490.75 210zM478.31 210L419 234.57l.83 2.23 64.7-26.8zM472.09 210l-53.92 22.33.83 2.24L478.31 210z"/><path fill="#FE5359" d="M465.87 210l-48.53 20.1.83 2.23L472.09 210zM459.65 210l-43.13 17.87.82 2.23 48.53-20.1z"/><path fill="#FE5359" d="M453.43 210l-37.74 15.63.83 2.24L459.65 210zM447.21 210l-32.35 13.4.83 2.23L453.43 210zM440.99 210l-26.96 11.17.83 2.23 32.35-13.4z"/><path fill="#FE5359" d="M434.77 210l-21.57 8.93.83 2.24L440.99 210zM428.55 210l-16.17 6.7.82 2.23 21.57-8.93z"/><path fill="#FE5359" d="M422.33 210l-10.78 4.47.83 2.23 16.17-6.7z"/><path fill="#FE5359" d="M416.11 210l-5.39 2.23.83 2.24 10.78-4.47zM409.89 210l.83 2.23 5.39-2.23z"/></g><g><path fill="#B02D59" d="M284.55 370.79l12.55 33.84 66.49-27.54z"/><path fill="#B02D59" d="M363.59 377.09l-66.49 27.54 1.94 5.23 76.76-31.8z"/><path fill="#B12D59" d="M375.8 378.06l-76.76 31.8 1.94 5.23 87.03-36.05z"/><path fill="#B22E59" d="M388.01 379.04l-87.03 36.05 1.94 5.23 97.31-40.31z"/><path fill="#B32E59" d="M400.23 380.01l-97.31 40.31 1.94 5.23 107.58-44.57z"/><path fill="#B42F59" d="M412.44 380.98l-107.58 44.57 1.94 5.23 117.86-48.82z"/><path fill="#B52F59" d="M424.66 381.96L306.8 430.78l1.94 5.23 128.13-53.08z"/><path fill="#B63059" d="M439.19 383.11l-2.32-.18-128.13 53.08 1.94 5.22 130.08-53.88z"/><path fill="#B73059" d="M440.76 387.35l-130.08 53.88 1.94 5.23 130.08-53.88z"/><path fill="#B83159" d="M442.7 392.58l-130.08 53.88 1.94 5.23 130.08-53.88z"/><path fill="#B93159" d="M444.64 397.81l-130.08 53.88 1.94 5.23 130.08-53.88z"/><path fill="#BA3259" d="M446.58 403.04L316.5 456.92l1.93 5.23 130.09-53.88z"/><path fill="#BB3259" d="M448.52 408.27l-130.09 53.88 1.94 5.23 130.09-53.89z"/><path fill="#BC3359" d="M450.46 413.49l-130.09 53.89 1.94 5.23 130.09-53.89z"/><path fill="#BD3359" d="M452.4 418.72l-130.09 53.89 1.94 5.23 130.09-53.89z"/><path fill="#BE3459" d="M454.34 423.95l-130.09 53.89 1.94 5.23 130.09-53.89z"/><path fill="#BF3459" d="M456.28 429.18l-130.09 53.89 1.94 5.23 130.09-53.89z"/><path fill="#C03559" d="M458.22 434.41L328.13 488.3l1.94 5.23 130.09-53.89z"/><path fill="#C13559" d="M460.16 439.64l-130.09 53.89 1.94 5.22 130.09-53.88z"/><path fill="#C23659" d="M462.1 444.87l-130.09 53.88 1.94 5.23 130.09-53.88z"/><path fill="#C33659" d="M464.04 450.1l-130.09 53.88 1.94 5.23 130.09-53.88z"/><path fill="#C43759" d="M465.98 455.33l-130.09 53.88 1.94 5.23 130.09-53.88z"/><path fill="#C53759" d="M467.92 460.56l-130.09 53.88 1.94 5.23 130.09-53.88z"/><path fill="#C63859" d="M469.86 465.79l-130.09 53.88 1.94 5.23 130.09-53.89z"/><path fill="#C73859" d="M471.8 471.01L341.71 524.9l1.94 5.23 130.09-53.89z"/><path fill="#C83959" d="M473.74 476.24l-130.09 53.89 1.94 5.23 130.09-53.89z"/><path fill="#C93959" d="M475.68 481.47l-130.09 53.89 1.94 5.23 130.09-53.89z"/><path fill="#CA3A59" d="M477.62 486.7l-130.09 53.89 1.94 5.23 130.09-53.89z"/><path fill="#CB3A59" d="M479.56 491.93l-130.09 53.89 1.94 5.23 130.08-53.89z"/><path fill="#CC3B59" d="M481.49 497.16l-130.08 53.89 1.94 5.23 130.08-53.89z"/><path fill="#CD3B59" d="M483.43 502.39l-130.08 53.89 1.94 5.22 130.08-53.88z"/><path fill="#CE3C59" d="M485.37 507.62L355.29 561.5l1.94 5.23 130.08-53.88z"/><path fill="#CF3C59" d="M487.31 512.85l-130.08 53.88 1.93 5.23 130.09-53.88z"/><path fill="#D03D59" d="M489.25 518.08l-130.09 53.88 1.94 5.23 130.09-53.88z"/><path fill="#D13D59" d="M491.19 523.31L361.1 577.19l1.94 5.23 130.09-53.88z"/><path fill="#D23E59" d="M493.13 528.54l-130.09 53.88 1.94 5.23 130.09-53.89z"/><path fill="#D33E59" d="M495.07 533.76l-130.09 53.89 1.94 5.23 130.09-53.89z"/><path fill="#D43F59" d="M497.01 538.99l-130.09 53.89 1.94 5.23 130.09-53.89z"/><path fill="#D53F59" d="M498.95 544.22l-130.09 53.89 1.94 5.23 130.09-53.89z"/><path fill="#D64059" d="M500.89 549.45L370.8 603.34l1.94 5.23 130.09-53.89z"/><path fill="#D84059" d="M502.83 554.68l-130.09 53.89 1.94 5.23 130.09-53.89z"/><path fill="#D94159" d="M504.77 559.91L374.68 613.8l1.94 5.22 130.09-53.88z"/><path fill="#DA4159" d="M506.71 565.14l-130.09 53.88 1.94 5.23 130.09-53.88z"/><path fill="#DB4259" d="M508.65 570.37l-130.09 53.88 1.94 5.23 130.09-53.88z"/><path fill="#DC4259" d="M510.59 575.6L380.5 629.48l1.94 5.23 130.09-53.88z"/><path fill="#DD4359" d="M512.53 580.83l-130.09 53.88 1.94 5.23 130.09-53.88z"/><path fill="#DE4359" d="M514.47 586.06l-130.09 53.88 1.94 5.23 130.09-53.89z"/><path fill="#DF4459" d="M516.41 591.28l-130.09 53.89 1.94 5.23 130.09-53.89z"/><path fill="#E04459" d="M518.35 596.51L388.26 650.4l1.94 5.23 130.09-53.89z"/><path fill="#E14559" d="M520.29 601.74L390.2 655.63l1.94 5.23 130.09-53.89z"/><path fill="#E24559" d="M522.23 606.97l-130.09 53.89 1.94 5.23 130.08-53.89z"/><path fill="#E34659" d="M524.16 612.2l-130.08 53.89 1.94 5.23 130.08-53.89z"/><path fill="#E44659" d="M526.1 617.43l-130.08 53.89 1.94 5.23 130.08-53.89z"/><path fill="#E54759" d="M528.04 622.66l-130.08 53.89 1.93 5.22 130.09-53.88z"/><path fill="#E64759" d="M529.98 627.89l-130.09 53.88 1.94 5.23 130.09-53.88z"/><path fill="#E74859" d="M531.92 633.12L401.83 687l1.94 5.23 130.09-53.88z"/><path fill="#E84859" d="M533.86 638.35l-130.09 53.88 1.94 5.23 130.09-53.88z"/><path fill="#E94959" d="M535.8 643.58l-130.09 53.88 1.94 5.23 130.09-53.89z"/><path fill="#EA4959" d="M537.74 648.8l-130.09 53.89 1.94 5.23 130.09-53.89z"/><path fill="#EB4A59" d="M539.68 654.03l-130.09 53.89 1.94 5.23 130.09-53.89z"/><path fill="#EC4A59" d="M541.62 659.26l-130.09 53.89 1.94 5.23 130.09-53.89z"/><path fill="#ED4B59" d="M543.56 664.49l-130.09 53.89 1.94 5.23 130.09-53.89z"/><path fill="#EE4B59" d="M545.5 669.72l-130.09 53.89 1.94 5.23 130.09-53.89z"/><path fill="#EF4C59" d="M547.44 674.95l-130.09 53.89 1.94 5.23 130.09-53.89z"/><path fill="#F04C59" d="M549.38 680.18l-130.09 53.89.8 2.16c.38 1.03.78 2.04 1.2 3.05l130.03-53.86-1.94-5.24z"/><path fill="#F14D59" d="M551.32 685.41l-130.03 53.86c.72 1.73 1.5 3.41 2.33 5.07l129.64-53.7-1.94-5.23z"/><path fill="#F24D59" d="M553.26 690.64l-129.64 53.7c.84 1.68 1.73 3.32 2.67 4.93l128.91-53.4-1.94-5.23z"/><path fill="#F34E59" d="M555.2 695.87l-128.91 53.4c.96 1.63 1.97 3.23 3.03 4.78l127.82-52.95-1.94-5.23z"/><path fill="#F44E59" d="M557.14 701.1l-127.82 52.95c1.08 1.58 2.21 3.13 3.4 4.63l126.37-52.34-1.95-5.24z"/><path fill="#F54F59" d="M559.08 706.33l-126.37 52.34a76.88 76.88 0 0 0 3.79 4.46l124.52-51.58-1.94-5.22z"/><path fill="#F64F59" d="M561.02 711.55L436.5 763.13c1.35 1.48 2.76 2.91 4.21 4.29l122.25-50.64-1.94-5.23z"/><path fill="#F75059" d="M562.96 716.78l-122.25 50.64c1.51 1.43 3.06 2.79 4.67 4.1l119.52-49.51-1.94-5.23z"/><path fill="#F85059" d="M564.89 722.01l-119.52 49.51c1.68 1.36 3.41 2.66 5.19 3.88l116.27-48.16-1.94-5.23z"/><path fill="#F95159" d="M566.83 727.24L450.56 775.4c1.87 1.29 3.81 2.5 5.78 3.64l112.43-46.57-1.94-5.23z"/><path fill="#FA5159" d="M568.77 732.47l-112.43 46.57c2.11 1.21 4.27 2.33 6.48 3.35l107.89-44.69-1.94-5.23z"/><path fill="#FB5259" d="M570.71 737.7l-107.89 44.69c2.4 1.11 4.85 2.11 7.36 2.98l102.47-42.44-1.94-5.23z"/><path fill="#FC5259" d="M572.65 742.93l-102.47 42.44c2.79.98 5.65 1.81 8.56 2.49l95.85-39.7-1.94-5.23z"/><path fill="#FD5359" d="M574.59 748.16l-95.85 39.7c3.41.79 6.89 1.36 10.43 1.71l87.36-36.19-1.94-5.22z"/><path fill="#FE5359" d="M576.53 753.39l-87.36 36.19c2.71.27 5.46.42 8.22.42h5.31l75.76-31.38-1.93-5.23zM502.71 790h87.4l-11.64-31.38z"/></g><g><path fill="#FE5359" d="M224.82 350.44L107.84 665.83h92.71c34.48 0 65.31-21.45 77.3-53.78l48.09-129.66 9.87-26.6c22.42-60.44 107.89-60.45 130.33-.03l-39.06-105.32c-15.68-42.29-56.02-70.35-101.12-70.35-45.11 0-85.45 28.06-101.14 70.35z"/><g opacity=".3"><path fill="#4A0028" d="M373.77 415.83zM373.77 415.82a67.472 67.472 0 0 0-15.58 9.03l33.2-13.75c-6.03.81-11.96 2.38-17.62 4.72z"/><path fill="#4D0129" d="M391.39 411.1l-33.2 13.75a66.99 66.99 0 0 0-5.65 4.92l46.55-19.28c-2.57.07-5.15.27-7.7.61z"/><path fill="#4F0329" d="M399.09 410.49l-46.55 19.28a63.903 63.903 0 0 0-3.98 4.23l56.53-23.42c-2-.11-4-.14-6-.09z"/><path fill="#52042A" d="M405.09 410.58L348.56 434a64.878 64.878 0 0 0-3.08 3.85l64.7-26.8c-1.7-.21-3.39-.37-5.09-.47z"/><path fill="#55052B" d="M410.17 411.05l-64.7 26.8c-.87 1.16-1.7 2.37-2.5 3.61l71.67-29.69c-1.47-.28-2.97-.52-4.47-.72z"/><path fill="#58062C" d="M414.65 411.78l-71.67 29.69c-.73 1.12-1.43 2.27-2.11 3.45l77.83-32.24a62.25 62.25 0 0 0-4.05-.9z"/><path fill="#5A072C" d="M418.7 412.67l-77.83 32.24a79.81 79.81 0 0 0-1.77 3.31l83.28-34.5c-1.22-.38-2.44-.73-3.68-1.05z"/><path fill="#5D092D" d="M422.38 413.73l-83.28 34.5a86.11 86.11 0 0 0-1.51 3.2l88.2-36.54c-1.12-.42-2.26-.8-3.41-1.16z"/><path fill="#5F0A2E" d="M425.8 414.89l-88.2 36.54c-.45 1.02-.88 2.06-1.3 3.11l92.65-38.38c-1.04-.45-2.09-.88-3.15-1.27z"/><path fill="#620B2E" d="M428.95 416.16l-92.65 38.38c-.16.42-.34.83-.49 1.25l-.67 1.8 96.77-40.09c-.97-.47-1.96-.92-2.96-1.34z"/><path fill="#640C2F" d="M431.91 417.51l-96.77 40.09-1.13 3.04 100.68-41.71c-.91-.5-1.84-.97-2.78-1.42z"/><path fill="#670D30" d="M434.69 418.93l-100.68 41.71-1.13 3.04 104.43-43.26c-.86-.51-1.74-1.01-2.62-1.49z"/><path fill="#690E31" d="M437.31 420.43l-104.43 43.26-1.13 3.04 108.01-44.74c-.8-.54-1.62-1.07-2.45-1.56z"/><path fill="#6C1031" d="M439.77 421.98l-108.01 44.74-1.13 3.04 111.46-46.17c-.77-.55-1.54-1.09-2.32-1.61z"/><path fill="#6E1132" d="M442.09 423.6l-111.46 46.17-1.13 3.04 114.79-47.55c-.73-.57-1.46-1.12-2.2-1.66z"/><path fill="#711233" d="M444.28 425.27l-114.79 47.55-1.13 3.04 118-48.88c-.68-.59-1.37-1.16-2.08-1.71z"/><path fill="#731333" d="M446.36 426.98l-118 48.88-1.13 3.04 121.1-50.16c-.64-.6-1.3-1.19-1.97-1.76z"/><path fill="#751434" d="M448.33 428.74l-121.1 50.16-1.13 3.04 124.09-51.4c-.61-.61-1.23-1.21-1.86-1.8z"/><path fill="#781534" d="M450.2 430.55l-124.09 51.4-.17.45.71 1.91 125.31-51.91c-.58-.64-1.16-1.25-1.76-1.85z"/><path fill="#7A1635" d="M451.96 432.39L326.65 484.3l.83 2.23 126.16-52.26c-.55-.64-1.11-1.26-1.68-1.88z"/><path fill="#7C1736" d="M453.64 434.28l-126.16 52.26.83 2.23 126.91-52.57c-.52-.66-1.05-1.3-1.58-1.92z"/><path fill="#7E1836" d="M455.22 436.2l-126.91 52.57.83 2.23 127.58-52.85c-.49-.66-.99-1.31-1.5-1.95z"/><path fill="#811937" d="M456.72 438.15L329.13 491l.83 2.23 128.16-53.09c-.46-.67-.93-1.33-1.4-1.99z"/><path fill="#831A37" d="M458.12 440.15l-128.16 53.09.83 2.23 128.66-53.29c-.44-.69-.87-1.37-1.33-2.03z"/><path fill="#851B38" d="M459.45 442.17l-128.66 53.29.83 2.23 129.07-53.47c-.4-.68-.82-1.37-1.24-2.05z"/><path fill="#871C39" d="M460.69 444.24L331.62 497.7l.83 2.23 129.42-53.61c-.39-.7-.78-1.4-1.18-2.08z"/><path fill="#891D39" d="M461.87 446.33l-129.42 53.61.83 2.23 129.69-53.72c-.36-.72-.73-1.43-1.1-2.12z"/><path fill="#8B1E3A" d="M462.97 448.45l-129.69 53.72.83 2.23L464 450.6c-.33-.73-.68-1.45-1.03-2.15z"/><path fill="#8D1F3A" d="M464 450.6l-129.9 53.8.83 2.23 130.03-53.86c-.31-.73-.63-1.46-.96-2.17z"/><path fill="#8F203B" d="M464.96 452.77l-130.03 53.86.83 2.23 130.08-53.88c-.29-.74-.58-1.48-.88-2.21z"/><path fill="#91213B" d="M466.15 455.76c-.01-.03-.01-.04-.03-.07-.09-.24-.19-.47-.28-.71l-130.08 53.88.83 2.23 130.1-53.89-.54-1.44z"/><path fill="#93223C" d="M466.69 457.21l-130.1 53.89.83 2.24 130.09-53.89z"/><path fill="#95233D" d="M467.51 459.45l-130.09 53.89.83 2.23 130.09-53.89z"/><path fill="#97243D" d="M468.34 461.68l-130.09 53.89.82 2.23 130.1-53.89z"/><path fill="#99253E" d="M469.17 463.91l-130.1 53.89.83 2.24L470 466.15z"/><path fill="#9B253E" d="M470 466.15l-130.1 53.89.83 2.23 130.1-53.89z"/><path fill="#9D263F" d="M470.83 468.38l-130.1 53.89.83 2.23 130.1-53.89z"/><path fill="#9F273F" d="M471.66 470.61l-130.1 53.89.83 2.24 130.09-53.89z"/><path fill="#A12840" d="M472.48 472.85l-130.09 53.89.83 2.23 130.09-53.89z"/><path fill="#A32940" d="M473.31 475.08l-130.09 53.89.82 2.23 130.1-53.89z"/><path fill="#A42A41" d="M474.14 477.31l-130.1 53.89.83 2.24 130.1-53.89z"/><path fill="#A62A41" d="M474.97 479.55l-130.1 53.89.83 2.23 130.1-53.89z"/><path fill="#A82B42" d="M475.8 481.78l-130.1 53.89.83 2.23 130.1-53.89z"/><path fill="#AA2C42" d="M476.63 484.01l-130.1 53.89.83 2.24 130.09-53.89z"/><path fill="#AB2D42" d="M477.45 486.25l-130.09 53.89.83 2.23 130.09-53.89z"/><path fill="#AD2E43" d="M478.28 488.48l-130.09 53.89.82 2.23 130.1-53.89z"/><path fill="#AF2E43" d="M479.11 490.71l-130.1 53.89.83 2.24 130.1-53.89z"/><path fill="#B02F44" d="M479.94 492.95l-130.1 53.89.83 2.23 130.1-53.89z"/><path fill="#B23044" d="M480.77 495.18l-130.1 53.89.83 2.23 130.1-53.88z"/><path fill="#B33145" d="M481.6 497.42L351.5 551.3l.83 2.24 130.09-53.89z"/><path fill="#B53145" d="M482.42 499.65l-130.09 53.89.83 2.23 130.09-53.89z"/><path fill="#B73246" d="M483.25 501.88l-130.09 53.89.82 2.23 130.1-53.88z"/><path fill="#B83346" d="M484.08 504.12L353.98 558l.83 2.24 130.1-53.89z"/><path fill="#BA3346" d="M484.91 506.35l-130.1 53.89.83 2.23 130.1-53.89z"/><path fill="#BB3447" d="M485.74 508.58l-130.1 53.89.83 2.24 130.1-53.89z"/><path fill="#BD3547" d="M486.57 510.82l-130.1 53.89.83 2.23 130.09-53.89z"/><path fill="#BE3648" d="M487.39 513.05L357.3 566.94l.83 2.23 130.09-53.89z"/><path fill="#BF3648" d="M488.22 515.28l-130.09 53.89.82 2.24 130.1-53.89z"/><path fill="#C13748" d="M489.05 517.52l-130.1 53.89.83 2.23 130.1-53.89z"/><path fill="#C23749" d="M489.88 519.75l-130.1 53.89.83 2.23 130.1-53.89z"/><path fill="#C43849" d="M490.71 521.98l-130.1 53.89.83 2.24 130.1-53.89z"/><path fill="#C53949" d="M491.54 524.22l-130.1 53.89.83 2.23 130.09-53.89z"/><path fill="#C6394A" d="M492.36 526.45l-130.09 53.89.83 2.23 130.09-53.89z"/><path fill="#C83A4A" d="M493.19 528.68L363.1 582.57l.82 2.24 130.1-53.89z"/><path fill="#C93B4B" d="M494.02 530.92l-130.1 53.89.83 2.23 130.1-53.89z"/><path fill="#CA3B4B" d="M494.85 533.15l-130.1 53.89.83 2.23 130.1-53.89z"/><path fill="#CB3C4B" d="M495.68 535.38l-130.1 53.89.83 2.24 130.1-53.89z"/><path fill="#CD3C4C" d="M496.51 537.62l-130.1 53.89.83 2.23 130.09-53.89z"/><path fill="#CE3D4C" d="M497.33 539.85l-130.09 53.89.83 2.23 130.09-53.89z"/><path fill="#CF3D4C" d="M498.16 542.08l-130.09 53.89.82 2.24 130.1-53.89z"/><path fill="#D03E4D" d="M498.99 544.32l-130.1 53.89.83 2.23 130.1-53.89z"/><path fill="#D13E4D" d="M499.82 546.55l-130.1 53.89.83 2.23 130.1-53.88z"/><path fill="#D23F4D" d="M500.65 548.79l-130.1 53.88.83 2.24 130.1-53.89z"/><path fill="#D43F4D" d="M501.48 551.02l-130.1 53.89.83 2.23 130.09-53.89z"/><path fill="#D5404E" d="M502.3 553.25l-130.09 53.89.83 2.24 130.09-53.89z"/><path fill="#D6404E" d="M503.13 555.49l-130.09 53.89.82 2.23 130.1-53.89z"/><path fill="#D7414E" d="M503.96 557.72l-130.1 53.89.83 2.23 130.1-53.89z"/><path fill="#D8414F" d="M504.79 559.95l-130.1 53.89.83 2.24 130.1-53.89z"/><path fill="#D9424F" d="M505.62 562.19l-130.1 53.89.83 2.23 130.1-53.89z"/><path fill="#DA424F" d="M506.45 564.42l-130.1 53.89.83 2.23 130.09-53.89z"/><path fill="#DB434F" d="M507.27 566.65l-130.09 53.89.83 2.24 130.09-53.89z"/><path fill="#DC4350" d="M508.1 568.89l-130.09 53.89.82 2.23 130.1-53.89z"/><path fill="#DD4450" d="M508.93 571.12l-130.1 53.89.83 2.23 130.1-53.89z"/><path fill="#DE4450" d="M509.76 573.35l-130.1 53.89.83 2.24 130.1-53.89z"/><path fill="#DF4550" d="M510.59 575.59l-130.1 53.89.83 2.23 130.1-53.89z"/><path fill="#E04551" d="M511.42 577.82l-130.1 53.89.83 2.23 130.09-53.89z"/><path fill="#E04551" d="M512.24 580.05l-130.09 53.89.83 2.24 130.09-53.89z"/><path fill="#E14651" d="M513.07 582.29l-130.09 53.89.83 2.23 130.09-53.89z"/><path fill="#E24651" d="M513.9 584.52l-130.09 53.89.82 2.23 130.1-53.89z"/><path fill="#E34752" d="M514.73 586.75l-130.1 53.89.83 2.24 130.1-53.89z"/><path fill="#E44752" d="M515.56 588.99l-130.1 53.89.83 2.23 130.1-53.89z"/><path fill="#E54752" d="M516.39 591.22l-130.1 53.89.83 2.23 130.09-53.89z"/><path fill="#E54852" d="M517.21 593.45l-130.09 53.89.83 2.24 130.09-53.89z"/><path fill="#E64853" d="M518.04 595.69l-130.09 53.89.83 2.23 130.09-53.89z"/><path fill="#E74853" d="M518.87 597.92l-130.09 53.89.82 2.23 130.1-53.89z"/><path fill="#E84953" d="M519.7 600.15l-130.1 53.89.83 2.24 130.1-53.89z"/><path fill="#E84953" d="M520.53 602.39l-130.1 53.89.83 2.23 130.1-53.89z"/><path fill="#E94953" d="M521.36 604.62l-130.1 53.89.83 2.23 130.09-53.88z"/><path fill="#EA4A53" d="M522.18 606.86l-130.09 53.88.83 2.24 130.09-53.89z"/><path fill="#EA4A54" d="M523.01 609.09l-130.09 53.89.83 2.23 130.09-53.89z"/><path fill="#EB4A54" d="M523.84 611.32l-130.09 53.89.82 2.23 130.1-53.88z"/><path fill="#EC4B54" d="M524.67 613.56l-130.1 53.88.83 2.24 130.1-53.89zM525.5 615.79l-130.1 53.89.83 2.23 130.1-53.89z"/><path fill="#ED4B54" d="M526.33 618.02l-130.1 53.89.83 2.24 130.1-53.89z"/><path fill="#EE4B55" d="M527.16 620.26l-130.1 53.89.83 2.23 130.09-53.89z"/><path fill="#EE4C55" d="M527.98 622.49l-130.09 53.89.83 2.23 130.09-53.89z"/><path fill="#EF4C55" d="M528.81 624.72l-130.09 53.89.82 2.24 130.1-53.89zM529.64 626.96l-130.1 53.89.83 2.23 130.1-53.89z"/><path fill="#F04D55" d="M530.47 629.19l-130.1 53.89.83 2.23 130.1-53.89z"/><path fill="#F04D55" d="M531.3 631.42l-130.1 53.89.83 2.24 130.1-53.89z"/><path fill="#F14D55" d="M532.13 633.66l-130.1 53.89.83 2.23 130.09-53.89z"/><path fill="#F24D56" d="M532.95 635.89l-130.09 53.89.83 2.23 130.09-53.89z"/><path fill="#F24D56" d="M533.78 638.12l-130.09 53.89.82 2.24 130.1-53.89z"/><path fill="#F34E56" d="M534.61 640.36l-130.1 53.89.83 2.23 130.1-53.89zM535.44 642.59l-130.1 53.89.83 2.23 130.1-53.89z"/><path fill="#F34E56" d="M536.27 644.82l-130.1 53.89.83 2.24 130.1-53.89z"/><path fill="#F44E56" d="M537.1 647.06L407 700.95l.83 2.23 130.09-53.89z"/><path fill="#F44F56" d="M537.92 649.29l-130.09 53.89.83 2.23 130.09-53.89z"/><path fill="#F54F56" d="M538.75 651.52l-130.09 53.89.82 2.24 130.1-53.89z"/><path fill="#F54F57" d="M539.58 653.76l-130.1 53.89.83 2.23 130.1-53.89z"/><path fill="#F64F57" d="M540.41 655.99l-130.1 53.89.83 2.23 130.1-53.88zM541.24 658.23l-130.1 53.88.83 2.24 130.1-53.89zM542.07 660.46l-130.1 53.89.83 2.23 130.09-53.89z"/><path fill="#F75057" d="M542.89 662.69L412.8 716.58l.83 2.23 130.09-53.88z"/><path fill="#F75057" d="M543.72 664.93l-130.09 53.88.82 2.24 130.1-53.89z"/><path fill="#F75057" d="M544.55 667.16l-130.1 53.89.83 2.23 130.1-53.89z"/><path fill="#F85057" d="M545.38 669.39l-130.1 53.89.83 2.24 130.1-53.89zM546.21 671.63l-130.1 53.89.83 2.23 130.1-53.89z"/><path fill="#F85057" d="M547.04 673.86l-130.1 53.89.83 2.23 130.09-53.89z"/><path fill="#F95158" d="M547.86 676.09l-130.09 53.89.83 2.24 130.09-53.89zM548.69 678.33L418.6 732.22l.82 2.23 130.1-53.89z"/><path fill="#F95158" d="M549.52 680.56l-130.1 53.89.66 1.78.18.45 130.09-53.89-.83-2.23zM550.35 682.79l-130.09 53.89c.28.74.57 1.48.87 2.22l130.04-53.87-.82-2.24z"/><path fill="#FA5158" d="M551.18 685.03L421.14 738.9c.3.74.62 1.46.94 2.19l129.93-53.82-.83-2.24z"/><path fill="#FA5158" d="M552.01 687.26l-129.93 53.82c.32.73.66 1.45 1 2.16l129.76-53.75-.83-2.23z"/><path fill="#FA5158" d="M552.83 689.49l-129.76 53.75c.34.72.69 1.43 1.06 2.14l129.53-53.65-.83-2.24z"/><path fill="#FA5158" d="M553.66 691.73l-129.53 53.65c.37.71.74 1.41 1.13 2.11l129.23-53.53-.83-2.23z"/><path fill="#FB5158" d="M554.49 693.96l-129.23 53.53c.39.7.79 1.39 1.2 2.08l128.86-53.38-.83-2.23z"/><path fill="#FB5258" d="M555.32 696.19l-128.86 53.38c.41.69.83 1.38 1.26 2.06l128.43-53.2-.83-2.24z"/><path fill="#FB5258" d="M556.15 698.43l-128.43 53.2c.43.68.87 1.36 1.32 2.03l127.94-52.99-.83-2.24z"/><path fill="#FB5258" d="M556.98 700.66l-127.94 52.99c.45.67.91 1.34 1.39 2l127.38-52.76-.83-2.23z"/><path fill="#FB5258" d="M557.8 702.89l-127.38 52.76c.48.67.97 1.32 1.47 1.97l126.74-52.5-.83-2.23z"/><path fill="#FC5258" d="M558.63 705.13l-126.74 52.5c.5.66 1.02 1.3 1.54 1.94l126.03-52.2-.83-2.24z"/><path fill="#FC5258" d="M559.46 707.36l-126.03 52.2c.53.65 1.06 1.28 1.6 1.91l125.25-51.88-.82-2.23zM560.29 709.6l-125.25 51.88c.55.64 1.1 1.27 1.67 1.88l124.41-51.53-.83-2.23zM561.12 711.83l-124.41 51.53c.58.63 1.16 1.25 1.75 1.85l123.49-51.15-.83-2.23z"/><path fill="#FC5259" d="M561.95 714.06l-123.49 51.15c.6.62 1.22 1.22 1.84 1.81l122.47-50.73-.82-2.23zM562.77 716.3L440.3 767.03c.63.6 1.27 1.2 1.92 1.78l121.38-50.28-.83-2.23z"/><path fill="#FD5259" d="M563.6 718.53l-121.38 50.28c.66.59 1.33 1.17 2.01 1.75l120.2-49.79-.83-2.24z"/><path fill="#FD5259" d="M564.43 720.76l-120.2 49.79c.69.58 1.39 1.15 2.09 1.71L565.26 723l-.83-2.24z"/><path fill="#FD5259" d="M565.26 723l-118.94 49.27c.72.57 1.45 1.13 2.19 1.67l117.58-48.7-.83-2.24z"/><path fill="#FD5359" d="M566.09 725.23l-117.58 48.7c.75.56 1.52 1.1 2.29 1.63l116.12-48.1-.83-2.23z"/><path fill="#FD5359" d="M566.92 727.46l-116.12 48.1c.79.54 1.59 1.07 2.4 1.58l114.55-47.45-.83-2.23zM567.74 729.7L453.2 777.15c.83.53 1.67 1.04 2.51 1.54l112.87-46.75-.84-2.24z"/><path fill="#FD5359" d="M568.57 731.93L455.7 778.68c.87.51 1.75 1.01 2.64 1.48l111.06-46-.83-2.23z"/><path fill="#FD5359" d="M569.4 734.16l-111.06 46c.92.49 1.84.97 2.78 1.43l109.11-45.2-.83-2.23zM570.23 736.4l-109.11 45.2c.97.47 1.94.93 2.93 1.36l107.01-44.32-.83-2.24z"/><path fill="#FD5359" d="M571.06 738.63l-107.01 44.32c1.02.45 2.06.88 3.1 1.29l104.73-43.38-.82-2.23z"/><path fill="#FE5359" d="M571.89 740.86l-104.73 43.38c1.09.43 2.18.83 3.29 1.21l102.27-42.36-.83-2.23zM572.71 743.1l-102.27 42.36c1.16.4 2.33.77 3.51 1.12l99.59-41.25-.83-2.23z"/><path fill="#FE5359" d="M573.54 745.33l-99.59 41.25c1.24.37 2.49.71 3.75 1.02l96.67-40.04-.83-2.23z"/><path fill="#FE5359" d="M574.37 747.56L477.7 787.6c1.34.33 2.69.63 4.05.9l93.44-38.71-.82-2.23zM575.2 749.8l-93.44 38.71c1.48.29 2.97.52 4.47.72l89.8-37.2-.83-2.23z"/><path fill="#FE5359" d="M576.03 752.03l-89.8 37.2c1.63.22 3.28.41 4.93.53l85.7-35.5-.83-2.23zM576.86 754.26l-85.7 35.5c1.88.14 3.77.21 5.67.23l80.85-33.49-.82-2.24z"/><path fill="#FE5359" d="M577.68 756.5l-80.85 33.49c.19 0 .37.01.56.01h5.63l75.49-31.27-.83-2.23zM578.51 758.73L503.03 790h6.22l70.09-29.04z"/><path fill="#FE5359" d="M579.34 760.96L509.25 790h6.22l64.7-26.8z"/><path fill="#FE5359" d="M580.17 763.2l-64.7 26.8h6.22L581 765.43zM581 765.43L521.69 790h6.22l53.92-22.33z"/><path fill="#FE5359" d="M581.83 767.67L527.91 790h6.22l48.53-20.1z"/><path fill="#FE5359" d="M582.66 769.9L534.13 790h6.22l43.13-17.87z"/><path fill="#FE5359" d="M583.48 772.13L540.35 790h6.22l37.74-15.63z"/><path fill="#FE5359" d="M584.31 774.37L546.57 790h6.22l32.35-13.4z"/><path fill="#FE5359" d="M585.14 776.6L552.79 790h6.22l26.96-11.17z"/><path fill="#FE5359" d="M585.97 778.83L559.01 790h6.22l21.57-8.93z"/><path fill="#FE5359" d="M586.8 781.07L565.23 790h6.22l16.17-6.7z"/><path fill="#FE5359" d="M587.62 783.3l-16.17 6.7h6.22l10.78-4.47z"/><path fill="#FE5359" d="M588.45 785.53L577.67 790h6.22l5.39-2.23z"/><path fill="#FE5359" d="M583.89 790h6.22l-.83-2.23z"/></g></g></svg>