<svg xmlns="http://www.w3.org/2000/svg" id="Layer_1" data-name="Layer 1" viewBox="0 0 512 512"><defs><style>.cls-1{fill:#898989;}</style></defs><title>box-arrow-out-other</title><path class="cls-1" d="M460.8,512H5.69A5.69,5.69,0,0,1,0,506.31V51.2a5.69,5.69,0,0,1,5.69-5.69H301.51a5.69,5.69,0,1,1,0,11.38H11.38V500.62H455.11V210.49a5.69,5.69,0,0,1,11.38,0V506.31A5.69,5.69,0,0,1,460.8,512Z"/><path class="cls-1" d="M267.38,250.31a5.69,5.69,0,0,1-4-9.71L502.29,1.67a5.69,5.69,0,0,1,8,8L271.4,248.64A5.67,5.67,0,0,1,267.38,250.31Z"/><path class="cls-1" d="M506.31,125.16a5.69,5.69,0,0,1-5.69-5.69V11.38H392.53a5.69,5.69,0,1,1,0-11.38H506.31A5.69,5.69,0,0,1,512,5.69V119.47A5.69,5.69,0,0,1,506.31,125.16Z"/></svg>