<svg width="24" height="24" viewBox="0 0 24 24" fill="none" xmlns="http://www.w3.org/2000/svg">
<path fill-rule="evenodd" clip-rule="evenodd" d="M11.3899 2.31999C11.4684 2.12438 11.6591 1.99722 11.8699 1.99999H12.1299C12.3388 1.99556 12.5275 2.12404 12.5999 2.31999L15.0899 8.20999L21.4799 8.71999C21.6856 8.73254 21.8614 8.87241 21.9199 9.06999L21.9999 9.31999C22.0657 9.50868 22.0103 9.71839 21.8599 9.84999L16.9999 14L18.4399 20.22C18.4887 20.4188 18.4138 20.6275 18.2499 20.75L18.0299 20.9C17.9444 20.967 17.8384 21.0023 17.7299 21C17.6383 21.0019 17.5481 20.9776 17.4699 20.93L11.9999 17.6L6.55989 20.93C6.48168 20.9776 6.39146 21.0019 6.29989 21C6.19135 21.0023 6.08534 20.967 5.99989 20.9L5.74989 20.75C5.58595 20.6275 5.51114 20.4188 5.55989 20.22L6.99989 14L2.14989 9.85999C1.99173 9.72917 1.93186 9.51364 1.99989 9.31999L2.10989 9.06999C2.16838 8.87241 2.34423 8.73254 2.54989 8.71999L8.93989 8.20999L11.3899 2.31999ZM18.6699 10.25L13.8599 9.86999L11.9999 5.40999L10.1399 9.86999L5.32989 10.25L8.99989 13.38L7.86989 18.06L11.9999 15.55L16.1199 18.06L14.9999 13.38L18.6699 10.25Z" fill="#F2C94C"/>
</svg>
