<svg width="24" height="24" viewBox="0 0 24 24" fill="none" xmlns="http://www.w3.org/2000/svg">
<g id="arrow_drop_down">
<path id="Icon color" d="M7.86 11.06C7.76534 10.9661 7.7121 10.8383 7.7121 10.705C7.7121 10.5717 7.76534 10.4439 7.86 10.35L8.06 10.15C8.15408 10.0523 8.28441 9.99802 8.42 9.99999H15.58C15.7156 9.99802 15.8459 10.0523 15.94 10.15L16.14 10.35C16.2347 10.4439 16.2879 10.5717 16.2879 10.705C16.2879 10.8383 16.2347 10.9661 16.14 11.06L12.35 14.85C12.2593 14.9467 12.1326 15.0015 12 15.0015C11.8674 15.0015 11.7407 14.9467 11.65 14.85L7.86 11.06Z" fill="#9193A9"/>
</g>
</svg>
