<svg width="32" height="16" viewBox="0 0 32 16" fill="none" xmlns="http://www.w3.org/2000/svg">
<path d="M8.536 8.816C8.536 7.744 8.04 6.864 7.16 6.304C7.944 5.728 8.408 4.88 8.408 3.856V3.84C8.392 1.904 6.952 0.672 4.6 0.655999L1.736 0.639999H1.08H0.12V12H1.736H4.808C7.096 11.984 8.52 10.752 8.536 8.832V8.816ZM4.552 2.192C5.88 2.192 6.632 2.912 6.632 3.888C6.632 4.912 5.928 5.616 4.568 5.616H1.736V2.192H4.552ZM6.776 8.736C6.776 9.824 5.88 10.432 4.728 10.432H1.736V7.04H4.696C5.96 7.04 6.776 7.696 6.776 8.736ZM13.5403 12V10.528L12.6763 10.512C12.2123 10.512 11.9723 10.368 11.9723 9.776L11.9563 0.639999H10.3403V10.016C10.3403 11.328 10.8843 11.984 11.9723 11.984L13.5403 12ZM18.3703 12.208C20.5303 12.208 22.2423 10.416 22.2423 8.16C22.2423 5.904 20.5303 4.08 18.3703 4.08C16.2263 4.032 14.4342 5.936 14.4823 8.16C14.4342 10.32 16.2743 12.256 18.3703 12.208ZM18.3703 5.616C19.7303 5.616 20.6423 6.704 20.6423 8.176C20.6423 9.648 19.7623 10.704 18.3703 10.704C17.0103 10.704 16.0823 9.552 16.0823 8.176C16.0823 7.456 16.2903 6.848 16.7063 6.352C17.1223 5.856 17.6823 5.616 18.3703 5.616ZM29.6285 4.304V5.152C29.0365 4.432 28.1725 4.048 27.1965 4.048C24.9565 4.048 23.4365 5.6 23.4365 8.032C23.4365 10.48 25.0205 11.984 27.1965 11.984C28.2365 11.984 29.0365 11.616 29.6285 10.88V11.76C29.6285 12.4 29.4845 12.928 29.1965 13.36C28.8125 13.984 28.1405 14.304 27.2925 14.304C26.6365 14.304 26.0125 14.08 25.5645 13.68C25.2765 13.44 25.0685 13.136 24.9565 12.736L23.5485 13.248C23.7565 13.856 24.0765 14.368 24.4925 14.768C25.2445 15.488 26.2045 15.84 27.4045 15.84C28.6365 15.84 29.6925 15.328 30.3965 14.432C30.9725 13.68 31.2605 12.8 31.2605 11.76V4.304H29.6285ZM29.6125 8C29.5965 9.536 28.6525 10.544 27.3885 10.544C25.9965 10.544 25.0205 9.552 25.0205 8.032C25.0205 6.512 25.9965 5.504 27.3885 5.504C28.5245 5.504 29.6125 6.384 29.6125 7.952V7.968V7.984V8Z" fill="#9193A9"/>
</svg>
