<svg width="32" height="32" viewBox="0 0 32 32" fill="none" xmlns="http://www.w3.org/2000/svg">
<g opacity="0.6">
<path fill-rule="evenodd" clip-rule="evenodd" d="M6.66667 4H25.3333C26.8061 4 28 5.19391 28 6.66667V25.3333C28 26.8061 26.8061 28 25.3333 28H6.66667C5.19391 28 4 26.8061 4 25.3333V6.66667C4 5.19391 5.19391 4 6.66667 4ZM10.6667 24C11.0349 24 11.3333 23.7015 11.3333 23.3333V14C11.3333 13.6318 11.0349 13.3333 10.6667 13.3333H8.66667C8.29848 13.3333 8 13.6318 8 14V23.3333C8 23.7015 8.29848 24 8.66667 24H10.6667ZM9.66667 12C8.5621 12 7.66667 11.1046 7.66667 10C7.66667 8.89543 8.5621 8 9.66667 8C10.7712 8 11.6667 8.89543 11.6667 10C11.6667 11.1046 10.7712 12 9.66667 12ZM23.3333 23.9998C23.7015 23.9998 24 23.7014 24 23.3332V17.1998C24.0433 15.0809 22.4768 13.2725 20.3733 13.0132C18.9027 12.8788 17.4777 13.5657 16.6667 14.7998V13.9998C16.6667 13.6317 16.3682 13.3332 16 13.3332H14C13.6318 13.3332 13.3333 13.6317 13.3333 13.9998V23.3332C13.3333 23.7014 13.6318 23.9998 14 23.9998H16C16.3682 23.9998 16.6667 23.7014 16.6667 23.3332V18.3332C16.6667 17.2286 17.5621 16.3332 18.6667 16.3332C19.7712 16.3332 20.6667 17.2286 20.6667 18.3332V23.3332C20.6667 23.7014 20.9651 23.9998 21.3333 23.9998H23.3333Z" fill="#0077B5"/>
</g>
</svg>
