<svg width="24" height="24" viewBox="0 0 24 24" fill="none" xmlns="http://www.w3.org/2000/svg">
<g id="star">
<path id="Icon color" d="M2.18014 9.86001C2.01103 9.73689 1.93872 9.51998 2.00014 9.32001L2.08014 9.07001C2.13863 8.87244 2.31447 8.73256 2.52014 8.72001L8.91014 8.21001L11.3601 2.32001C11.4423 2.11367 11.6486 1.98425 11.8701 2.00001H12.1301C12.339 1.99558 12.5277 2.12406 12.6001 2.32001L15.0601 8.21001L21.4501 8.72001C21.6558 8.73256 21.8317 8.87244 21.8901 9.07001L21.9701 9.32001C22.0382 9.51366 21.9783 9.7292 21.8201 9.86001L17.0001 14L18.4801 20.21C18.5289 20.4088 18.4541 20.6175 18.2901 20.74L18.0001 20.9C17.831 21.0144 17.6093 21.0144 17.4401 20.9L12.0001 17.6L6.53014 20.93C6.36098 21.0444 6.1393 21.0444 5.97014 20.93L5.75014 20.78C5.58619 20.6575 5.51138 20.4488 5.56014 20.25L7.00014 14L2.18014 9.86001Z" fill="#F2C94C"/>
</g>
</svg>
