<svg xmlns="http://www.w3.org/2000/svg" width="18" height="18" fill="none"><path fill-rule="evenodd" clip-rule="evenodd" d="M17.009 8.033a2.667 2.667 0 0 0 0 1.934l.142.408a2.725 2.725 0 0 1-1.425 3.458L15.35 14a2.758 2.758 0 0 0-1.4 1.35l-.167.375a2.725 2.725 0 0 1-3.458 1.425l-.384-.142a2.666 2.666 0 0 0-1.933 0l-.383.142a2.725 2.725 0 0 1-3.459-1.425l-.166-.375a2.758 2.758 0 0 0-1.35-1.4l-.375-.167A2.725 2.725 0 0 1 .85 10.325l.141-.383a2.667 2.667 0 0 0 0-1.934l-.141-.383a2.725 2.725 0 0 1 1.425-3.458L2.65 4A2.758 2.758 0 0 0 4 2.65l.191-.375A2.725 2.725 0 0 1 7.676.85l.383.142a2.667 2.667 0 0 0 1.933 0l.384-.142a2.725 2.725 0 0 1 3.458 1.425L14 2.65A2.758 2.758 0 0 0 15.35 4l.375.192A2.725 2.725 0 0 1 17.15 7.65l-.142.383zm-9.067 3.759l4.684-4.684a.417.417 0 0 0 0-.575l-.442-.441a.417.417 0 0 0-.583 0l-3.95 3.95L6.4 8.8a.4.4 0 0 0-.584 0l-.441.442a.417.417 0 0 0 0 .591l1.983 1.959a.4.4 0 0 0 .583 0z" fill="#27AE60"/></svg>