<svg xmlns="http://www.w3.org/2000/svg" width="16" height="12" fill="none"><path fill-rule="evenodd" clip-rule="evenodd" d="M15 10.667h-2.333v-10A.667.667 0 0 0 12 0H4a.667.667 0 0 0-.667.667v10H1A.333.333 0 0 0 .667 11v.667c0 .184.149.333.333.333h14c.184 0 .333-.15.333-.333V11a.333.333 0 0 0-.333-.333zm-4-5.334h-.667A.333.333 0 0 1 10 5v-.667c0-.184.15-.333.333-.333H11c.184 0 .333.15.333.333V5c0 .184-.149.333-.333.333zm-6 0h.667C5.85 5.333 6 5.184 6 5v-.667A.333.333 0 0 0 5.667 4H5a.333.333 0 0 0-.333.333V5c0 .184.149.333.333.333zM6 7v.667C6 7.85 5.85 8 5.667 8H5a.333.333 0 0 1-.333-.333V7c0-.184.149-.333.333-.333h.667C5.85 6.667 6 6.816 6 7zm5-.333h-.667A.333.333 0 0 0 10 7v.667c0 .184.15.333.333.333H11c.184 0 .333-.15.333-.333V7A.333.333 0 0 0 11 6.667zm0-4h-.667A.333.333 0 0 1 10 2.333v-.666c0-.184.15-.334.333-.334H11c.184 0 .333.15.333.334v.666c0 .184-.149.334-.333.334zm-5-.334v-.666a.333.333 0 0 0-.333-.334H5a.333.333 0 0 0-.333.334v.666c0 .184.149.334.333.334h.667c.184 0 .333-.15.333-.334zm-1 7h6c.184 0 .333.15.333.334v1H4.667v-1c0-.184.149-.334.333-.334zm2.667-4h.666c.185 0 .334-.149.334-.333v-.667A.333.333 0 0 0 8.333 4h-.666a.333.333 0 0 0-.334.333V5c0 .184.15.333.334.333zm0 1.334h.666c.185 0 .334.149.334.333v.667c0 .184-.15.333-.334.333h-.666a.333.333 0 0 1-.334-.333V7c0-.184.15-.333.334-.333zm0-4h.666c.185 0 .334-.15.334-.334v-.666a.333.333 0 0 0-.334-.334h-.666a.333.333 0 0 0-.334.334v.666c0 .184.15.334.334.334z" fill="#9193A9"/></svg>